<svg width="21" height="20" viewBox="0 0 21 20" fill="none" xmlns="http://www.w3.org/2000/svg">
<path d="M9.78265 1.45332C10.0131 0.986377 10.1284 0.752908 10.2848 0.678314C10.4209 0.613414 10.5791 0.613414 10.7152 0.678314C10.8717 0.752908 10.9869 0.986377 11.2174 1.45332L13.4041 5.88328C13.4721 6.02113 13.5061 6.09006 13.5558 6.14358C13.5999 6.19096 13.6527 6.22935 13.7113 6.25662C13.7776 6.28742 13.8536 6.29854 14.0057 6.32077L18.897 7.03571C19.4121 7.11099 19.6696 7.14863 19.7888 7.27444C19.8925 7.38389 19.9412 7.5343 19.9215 7.68377C19.8988 7.85558 19.7124 8.03718 19.3395 8.40038L15.8014 11.8464C15.6912 11.9538 15.636 12.0076 15.6004 12.0715C15.5689 12.128 15.5487 12.1902 15.5409 12.2545C15.5321 12.3271 15.5451 12.403 15.5711 12.5547L16.406 17.4221C16.494 17.9355 16.538 18.1922 16.4553 18.3445C16.3833 18.477 16.2554 18.57 16.1071 18.5975C15.9366 18.6291 15.7061 18.5078 15.2451 18.2654L10.8724 15.9658C10.7361 15.8942 10.668 15.8584 10.5962 15.8443C10.5327 15.8318 10.4673 15.8318 10.4038 15.8443C10.332 15.8584 10.2639 15.8942 10.1277 15.9658L5.75492 18.2654C5.29392 18.5078 5.06341 18.6291 4.89297 18.5975C4.74468 18.57 4.61672 18.477 4.54474 18.3445C4.462 18.1922 4.50603 17.9355 4.59407 17.4221L5.42889 12.5547C5.45491 12.403 5.46793 12.3271 5.45912 12.2545C5.45132 12.1902 5.43111 12.128 5.39961 12.0715C5.36402 12.0076 5.30888 11.9538 5.19859 11.8464L1.66056 8.40038C1.28766 8.03718 1.10121 7.85558 1.07853 7.68377C1.05879 7.5343 1.10755 7.38389 1.21125 7.27444C1.33044 7.14863 1.58797 7.11099 2.10304 7.03571L6.99431 6.32077C7.14642 6.29854 7.22248 6.28742 7.28872 6.25662C7.34736 6.22935 7.40016 6.19096 7.44419 6.14358C7.49391 6.09006 7.52793 6.02113 7.59597 5.88328L9.78265 1.45332Z" stroke="#9DA4AE" stroke-linecap="round" stroke-linejoin="round"/>
</svg>
